<mxfile host="Electron" modified="2024-07-04T05:32:23.488Z" agent="Mozilla/5.0 (Macintosh; Intel Mac OS X 10_15_7) AppleWebKit/537.36 (KHTML, like Gecko) draw.io/24.6.4 Chrome/124.0.6367.207 Electron/30.0.6 Safari/537.36" etag="tASJMbG_1CSV7FPZtMnF" version="24.6.4" type="device">
  <diagram name="Page-1" id="74Zcmu2bZkL9WZgdJAOJ">
    <mxGraphModel dx="4326" dy="2077" grid="0" gridSize="10" guides="1" tooltips="1" connect="1" arrows="1" fold="1" page="0" pageScale="1" pageWidth="827" pageHeight="1169" background="none" math="0" shadow="0">
      <root>
        <mxCell id="0" />
        <mxCell id="1" parent="0" />
        <mxCell id="uznuza7RhrSrtAUMvU-b-109" value="" style="endArrow=classic;html=1;rounded=0;" parent="1" source="uznuza7RhrSrtAUMvU-b-95" target="uznuza7RhrSrtAUMvU-b-108" edge="1">
          <mxGeometry width="50" height="50" relative="1" as="geometry">
            <mxPoint x="240.21000000000004" y="2966" as="sourcePoint" />
            <mxPoint x="265.21000000000004" y="2877" as="targetPoint" />
          </mxGeometry>
        </mxCell>
        <mxCell id="uznuza7RhrSrtAUMvU-b-155" value="" style="endArrow=classic;startArrow=classic;html=1;rounded=0;" parent="1" source="uznuza7RhrSrtAUMvU-b-116" target="uznuza7RhrSrtAUMvU-b-57" edge="1">
          <mxGeometry width="50" height="50" relative="1" as="geometry">
            <mxPoint x="823" y="2433" as="sourcePoint" />
            <mxPoint x="929" y="2288" as="targetPoint" />
          </mxGeometry>
        </mxCell>
        <mxCell id="uznuza7RhrSrtAUMvU-b-59" style="rounded=0;orthogonalLoop=1;jettySize=auto;html=1;" parent="1" source="uznuza7RhrSrtAUMvU-b-1" target="uznuza7RhrSrtAUMvU-b-60" edge="1">
          <mxGeometry relative="1" as="geometry">
            <mxPoint x="-990" y="1857" as="sourcePoint" />
          </mxGeometry>
        </mxCell>
        <mxCell id="uznuza7RhrSrtAUMvU-b-60" value="&lt;font style=&quot;font-size: 24px;&quot;&gt;Route of Administration&lt;/font&gt;" style="rounded=0;whiteSpace=wrap;html=1;" parent="1" vertex="1">
          <mxGeometry x="-1214" y="1662" width="167" height="60" as="geometry" />
        </mxCell>
        <mxCell id="acv9JP_fDEOExKPMS1G3-3" value="" style="edgeStyle=orthogonalEdgeStyle;rounded=0;orthogonalLoop=1;jettySize=auto;html=1;" parent="1" source="acv9JP_fDEOExKPMS1G3-1" target="acv9JP_fDEOExKPMS1G3-2" edge="1">
          <mxGeometry relative="1" as="geometry" />
        </mxCell>
        <mxCell id="acv9JP_fDEOExKPMS1G3-1" value="&lt;font style=&quot;font-size: 36px;&quot;&gt;&lt;b&gt;Tata-1mg&lt;/b&gt;&lt;/font&gt;" style="rounded=0;whiteSpace=wrap;html=1;fillColor=#ffe6cc;strokeColor=#d79b00;" parent="1" vertex="1">
          <mxGeometry x="-38" y="108" width="180" height="60" as="geometry" />
        </mxCell>
        <mxCell id="acv9JP_fDEOExKPMS1G3-17" value="" style="edgeStyle=orthogonalEdgeStyle;rounded=0;orthogonalLoop=1;jettySize=auto;html=1;" parent="1" source="acv9JP_fDEOExKPMS1G3-2" target="acv9JP_fDEOExKPMS1G3-16" edge="1">
          <mxGeometry relative="1" as="geometry" />
        </mxCell>
        <mxCell id="acv9JP_fDEOExKPMS1G3-2" value="&lt;font style=&quot;font-size: 18px;&quot;&gt;Indian Drug Brand&amp;nbsp;&lt;/font&gt;&lt;div&gt;&lt;font style=&quot;font-size: 18px;&quot;&gt;Information&lt;/font&gt;&lt;/div&gt;" style="whiteSpace=wrap;html=1;rounded=0;fillColor=#ffe6cc;strokeColor=#d79b00;" parent="1" vertex="1">
          <mxGeometry x="-28" y="228" width="160" height="60" as="geometry" />
        </mxCell>
        <mxCell id="acv9JP_fDEOExKPMS1G3-7" value="" style="edgeStyle=orthogonalEdgeStyle;rounded=0;orthogonalLoop=1;jettySize=auto;html=1;" parent="1" source="acv9JP_fDEOExKPMS1G3-4" target="acv9JP_fDEOExKPMS1G3-6" edge="1">
          <mxGeometry relative="1" as="geometry" />
        </mxCell>
        <mxCell id="acv9JP_fDEOExKPMS1G3-4" value="&lt;font style=&quot;font-size: 18px;&quot;&gt;PubChem&lt;/font&gt;&lt;div&gt;&lt;font style=&quot;font-size: 18px;&quot;&gt;DrugBank&lt;/font&gt;&lt;/div&gt;&lt;div&gt;&lt;font style=&quot;font-size: 18px;&quot;&gt;FDA&lt;/font&gt;&lt;/div&gt;" style="rounded=0;whiteSpace=wrap;html=1;fillColor=#fff2cc;strokeColor=#d6b656;" parent="1" vertex="1">
          <mxGeometry x="432" y="218" width="100" height="80" as="geometry" />
        </mxCell>
        <mxCell id="acv9JP_fDEOExKPMS1G3-6" value="&lt;font style=&quot;font-size: 18px;&quot;&gt;Allergies&lt;/font&gt;&lt;div&gt;&lt;font style=&quot;font-size: 18px;&quot;&gt;Side-Effects&lt;/font&gt;&lt;/div&gt;&lt;div&gt;&lt;font style=&quot;font-size: 18px;&quot;&gt;Symptoms&lt;/font&gt;&lt;/div&gt;" style="whiteSpace=wrap;html=1;rounded=0;fillColor=#fff2cc;strokeColor=#d6b656;" parent="1" vertex="1">
          <mxGeometry x="412" y="388" width="140" height="70" as="geometry" />
        </mxCell>
        <mxCell id="acv9JP_fDEOExKPMS1G3-8" value="" style="endArrow=classic;html=1;rounded=0;" parent="1" source="acv9JP_fDEOExKPMS1G3-2" target="acv9JP_fDEOExKPMS1G3-4" edge="1">
          <mxGeometry relative="1" as="geometry">
            <mxPoint x="362" y="268" as="sourcePoint" />
            <mxPoint x="462" y="268" as="targetPoint" />
            <Array as="points" />
          </mxGeometry>
        </mxCell>
        <mxCell id="acv9JP_fDEOExKPMS1G3-9" value="&lt;font style=&quot;font-size: 18px;&quot;&gt;Connects to International&lt;/font&gt;&lt;div&gt;&lt;font style=&quot;font-size: 18px;&quot;&gt;Databases using Salt&lt;/font&gt;&lt;/div&gt;" style="edgeLabel;resizable=0;html=1;;align=center;verticalAlign=middle;" parent="acv9JP_fDEOExKPMS1G3-8" connectable="0" vertex="1">
          <mxGeometry relative="1" as="geometry" />
        </mxCell>
        <mxCell id="acv9JP_fDEOExKPMS1G3-13" value="&lt;font style=&quot;font-size: 18px;&quot;&gt;DataBase&lt;/font&gt;" style="rounded=0;whiteSpace=wrap;html=1;fillColor=#f5f5f5;fontColor=#333333;strokeColor=#666666;" parent="1" vertex="1">
          <mxGeometry x="218" y="340" width="120" height="60" as="geometry" />
        </mxCell>
        <mxCell id="acv9JP_fDEOExKPMS1G3-14" value="&lt;font style=&quot;font-size: 18px;&quot;&gt;Knowledge Graph&lt;/font&gt;" style="rounded=0;whiteSpace=wrap;html=1;fillColor=#f5f5f5;fontColor=#333333;strokeColor=#666666;" parent="1" vertex="1">
          <mxGeometry x="218" y="460" width="120" height="60" as="geometry" />
        </mxCell>
        <mxCell id="acv9JP_fDEOExKPMS1G3-15" value="" style="endArrow=classic;html=1;rounded=0;" parent="1" source="acv9JP_fDEOExKPMS1G3-13" target="acv9JP_fDEOExKPMS1G3-14" edge="1">
          <mxGeometry width="50" height="50" relative="1" as="geometry">
            <mxPoint x="228" y="470" as="sourcePoint" />
            <mxPoint x="278" y="420" as="targetPoint" />
          </mxGeometry>
        </mxCell>
        <mxCell id="acv9JP_fDEOExKPMS1G3-16" value="&lt;font style=&quot;font-size: 18px;&quot;&gt;COMMON DATA MODEL&lt;/font&gt;" style="whiteSpace=wrap;html=1;rounded=0;fillColor=#e1d5e7;strokeColor=#9673a6;" parent="1" vertex="1">
          <mxGeometry x="-63" y="598" width="230" height="60" as="geometry" />
        </mxCell>
        <mxCell id="acv9JP_fDEOExKPMS1G3-18" value="&lt;font style=&quot;font-size: 18px;&quot;&gt;&lt;b&gt;NRCeS&lt;/b&gt;&lt;/font&gt;&lt;div&gt;&lt;font style=&quot;font-size: 14px;&quot;&gt;Common Drug Codes&lt;/font&gt;&lt;/div&gt;" style="whiteSpace=wrap;html=1;rounded=0;fillColor=#e1d5e7;strokeColor=#9673a6;" parent="1" vertex="1">
          <mxGeometry x="-23" y="738" width="150" height="60" as="geometry" />
        </mxCell>
        <mxCell id="acv9JP_fDEOExKPMS1G3-20" value="" style="endArrow=classic;html=1;rounded=0;" parent="1" source="acv9JP_fDEOExKPMS1G3-16" target="acv9JP_fDEOExKPMS1G3-18" edge="1">
          <mxGeometry relative="1" as="geometry">
            <mxPoint x="112" y="588" as="sourcePoint" />
            <mxPoint x="212" y="588" as="targetPoint" />
          </mxGeometry>
        </mxCell>
        <mxCell id="acv9JP_fDEOExKPMS1G3-21" value="&lt;font style=&quot;font-size: 24px;&quot;&gt;Indian&lt;/font&gt;" style="edgeLabel;resizable=0;html=1;;align=center;verticalAlign=middle;" parent="acv9JP_fDEOExKPMS1G3-20" connectable="0" vertex="1">
          <mxGeometry relative="1" as="geometry" />
        </mxCell>
        <mxCell id="acv9JP_fDEOExKPMS1G3-22" value="&lt;font style=&quot;font-size: 18px;&quot;&gt;(SNOMED-CT)&lt;/font&gt;" style="text;html=1;align=center;verticalAlign=middle;whiteSpace=wrap;rounded=0;" parent="1" vertex="1">
          <mxGeometry x="-10.5" y="808" width="125" height="30" as="geometry" />
        </mxCell>
        <mxCell id="acv9JP_fDEOExKPMS1G3-36" value="" style="edgeStyle=orthogonalEdgeStyle;rounded=0;orthogonalLoop=1;jettySize=auto;html=1;" parent="1" source="acv9JP_fDEOExKPMS1G3-23" target="acv9JP_fDEOExKPMS1G3-35" edge="1">
          <mxGeometry relative="1" as="geometry" />
        </mxCell>
        <mxCell id="acv9JP_fDEOExKPMS1G3-23" value="&lt;font style=&quot;font-size: 18px;&quot;&gt;SNOMED-CT&lt;/font&gt;&lt;div&gt;&lt;font style=&quot;font-size: 18px;&quot;&gt;RxNorm&lt;/font&gt;&lt;/div&gt;&lt;div&gt;&lt;font style=&quot;font-size: 18px;&quot;&gt;ICD-9&lt;/font&gt;&lt;/div&gt;&lt;div&gt;&lt;font style=&quot;font-size: 18px;&quot;&gt;ICD-10&lt;/font&gt;&lt;/div&gt;&lt;div&gt;&lt;font style=&quot;font-size: 18px;&quot;&gt;etc.&lt;/font&gt;&lt;/div&gt;" style="whiteSpace=wrap;html=1;rounded=0;fillColor=#e1d5e7;strokeColor=#9673a6;" parent="1" vertex="1">
          <mxGeometry x="-427" y="532.5" width="138" height="191" as="geometry" />
        </mxCell>
        <mxCell id="acv9JP_fDEOExKPMS1G3-25" value="" style="endArrow=classic;html=1;rounded=0;" parent="1" source="acv9JP_fDEOExKPMS1G3-16" target="acv9JP_fDEOExKPMS1G3-23" edge="1">
          <mxGeometry relative="1" as="geometry">
            <mxPoint x="-19" y="506" as="sourcePoint" />
            <mxPoint x="81" y="506" as="targetPoint" />
          </mxGeometry>
        </mxCell>
        <mxCell id="acv9JP_fDEOExKPMS1G3-26" value="&lt;div&gt;&lt;font style=&quot;font-size: 24px;&quot;&gt;OMOP&lt;/font&gt;&lt;/div&gt;" style="edgeLabel;resizable=0;html=1;;align=center;verticalAlign=middle;" parent="acv9JP_fDEOExKPMS1G3-25" connectable="0" vertex="1">
          <mxGeometry relative="1" as="geometry" />
        </mxCell>
        <mxCell id="acv9JP_fDEOExKPMS1G3-28" value="&lt;font style=&quot;font-size: 24px;&quot;&gt;Unstructured&amp;nbsp;&lt;/font&gt;&lt;div&gt;&lt;font style=&quot;font-size: 24px;&quot;&gt;Health Data&lt;/font&gt;&lt;/div&gt;" style="rounded=0;whiteSpace=wrap;html=1;fillColor=#b1ddf0;strokeColor=#10739e;" parent="1" vertex="1">
          <mxGeometry x="-368" y="228" width="162" height="85" as="geometry" />
        </mxCell>
        <mxCell id="acv9JP_fDEOExKPMS1G3-30" value="&lt;font style=&quot;font-size: 18px;&quot;&gt;ML&lt;/font&gt;" style="text;html=1;align=center;verticalAlign=middle;whiteSpace=wrap;rounded=0;rotation=45;" parent="1" vertex="1">
          <mxGeometry x="-165" y="415" width="53" height="23" as="geometry" />
        </mxCell>
        <mxCell id="acv9JP_fDEOExKPMS1G3-31" value="" style="endArrow=classic;html=1;rounded=0;entryX=0.196;entryY=0.025;entryDx=0;entryDy=0;entryPerimeter=0;" parent="1" source="acv9JP_fDEOExKPMS1G3-28" target="acv9JP_fDEOExKPMS1G3-16" edge="1">
          <mxGeometry width="50" height="50" relative="1" as="geometry">
            <mxPoint x="41" y="476" as="sourcePoint" />
            <mxPoint x="91" y="426" as="targetPoint" />
          </mxGeometry>
        </mxCell>
        <mxCell id="acv9JP_fDEOExKPMS1G3-32" value="&lt;font style=&quot;font-size: 24px;&quot;&gt;Voice&lt;/font&gt;&lt;div&gt;&lt;span style=&quot;font-size: 24px;&quot;&gt;&lt;br&gt;&lt;/span&gt;&lt;div&gt;&lt;font style=&quot;font-size: 24px;&quot;&gt;Text&lt;/font&gt;&lt;/div&gt;&lt;div&gt;&lt;font style=&quot;font-size: 24px;&quot;&gt;&lt;br&gt;&lt;/font&gt;&lt;/div&gt;&lt;div&gt;&lt;font style=&quot;font-size: 24px;&quot;&gt;EHR&lt;/font&gt;&lt;/div&gt;&lt;/div&gt;" style="rounded=0;whiteSpace=wrap;html=1;fillColor=#b1ddf0;strokeColor=#10739e;" parent="1" vertex="1">
          <mxGeometry x="-635" y="189.75" width="144" height="161.5" as="geometry" />
        </mxCell>
        <mxCell id="acv9JP_fDEOExKPMS1G3-33" value="" style="endArrow=classic;html=1;rounded=0;" parent="1" source="acv9JP_fDEOExKPMS1G3-32" target="acv9JP_fDEOExKPMS1G3-28" edge="1">
          <mxGeometry width="50" height="50" relative="1" as="geometry">
            <mxPoint x="-339" y="368" as="sourcePoint" />
            <mxPoint x="-289" y="318" as="targetPoint" />
          </mxGeometry>
        </mxCell>
        <mxCell id="acv9JP_fDEOExKPMS1G3-35" value="&lt;font style=&quot;font-size: 20px;&quot;&gt;Analysis&lt;/font&gt;" style="rounded=0;whiteSpace=wrap;html=1;fillColor=#f8cecc;strokeColor=#b85450;" parent="1" vertex="1">
          <mxGeometry x="-418" y="802" width="120" height="60" as="geometry" />
        </mxCell>
        <mxCell id="uznuza7RhrSrtAUMvU-b-5" value="" style="rounded=0;orthogonalLoop=1;jettySize=auto;html=1;" parent="1" source="uznuza7RhrSrtAUMvU-b-1" target="uznuza7RhrSrtAUMvU-b-4" edge="1">
          <mxGeometry relative="1" as="geometry" />
        </mxCell>
        <mxCell id="uznuza7RhrSrtAUMvU-b-6" value="" style="rounded=0;orthogonalLoop=1;jettySize=auto;html=1;" parent="1" source="uznuza7RhrSrtAUMvU-b-1" target="uznuza7RhrSrtAUMvU-b-2" edge="1">
          <mxGeometry relative="1" as="geometry" />
        </mxCell>
        <mxCell id="uznuza7RhrSrtAUMvU-b-7" style="rounded=0;orthogonalLoop=1;jettySize=auto;html=1;" parent="1" source="uznuza7RhrSrtAUMvU-b-1" target="uznuza7RhrSrtAUMvU-b-8" edge="1">
          <mxGeometry relative="1" as="geometry">
            <mxPoint x="-646" y="2121" as="targetPoint" />
          </mxGeometry>
        </mxCell>
        <mxCell id="uznuza7RhrSrtAUMvU-b-10" style="rounded=0;orthogonalLoop=1;jettySize=auto;html=1;" parent="1" source="uznuza7RhrSrtAUMvU-b-1" target="uznuza7RhrSrtAUMvU-b-9" edge="1">
          <mxGeometry relative="1" as="geometry" />
        </mxCell>
        <mxCell id="uznuza7RhrSrtAUMvU-b-1" value="&lt;font style=&quot;font-size: 36px;&quot;&gt;&lt;b style=&quot;&quot;&gt;Tata-1mg&lt;/b&gt;&lt;/font&gt;" style="rounded=0;whiteSpace=wrap;html=1;fillColor=#f8cecc;strokeColor=#b85450;" parent="1" vertex="1">
          <mxGeometry x="-1322" y="1958" width="180" height="60" as="geometry" />
        </mxCell>
        <mxCell id="uznuza7RhrSrtAUMvU-b-4" value="&lt;font style=&quot;font-size: 24px;&quot;&gt;Marketer&lt;/font&gt;" style="whiteSpace=wrap;html=1;rounded=0;" parent="1" vertex="1">
          <mxGeometry x="-1330" y="1754" width="120" height="60" as="geometry" />
        </mxCell>
        <mxCell id="uznuza7RhrSrtAUMvU-b-8" value="&lt;font style=&quot;font-size: 24px;&quot;&gt;Storage Conditions&lt;/font&gt;" style="rounded=0;whiteSpace=wrap;html=1;" parent="1" vertex="1">
          <mxGeometry x="-1256" y="2136" width="120" height="60" as="geometry" />
        </mxCell>
        <mxCell id="uznuza7RhrSrtAUMvU-b-11" style="rounded=0;orthogonalLoop=1;jettySize=auto;html=1;" parent="1" source="uznuza7RhrSrtAUMvU-b-1" target="uznuza7RhrSrtAUMvU-b-12" edge="1">
          <mxGeometry relative="1" as="geometry">
            <mxPoint x="-819" y="1897" as="sourcePoint" />
          </mxGeometry>
        </mxCell>
        <mxCell id="uznuza7RhrSrtAUMvU-b-12" value="&lt;font style=&quot;font-size: 24px;&quot;&gt;Mechanism of Action&lt;/font&gt;" style="rounded=0;whiteSpace=wrap;html=1;fillColor=#eeeeee;strokeColor=#36393d;" parent="1" vertex="1">
          <mxGeometry x="-773" y="1874" width="120" height="60" as="geometry" />
        </mxCell>
        <mxCell id="uznuza7RhrSrtAUMvU-b-13" style="rounded=0;orthogonalLoop=1;jettySize=auto;html=1;" parent="1" source="uznuza7RhrSrtAUMvU-b-1" target="uznuza7RhrSrtAUMvU-b-14" edge="1">
          <mxGeometry relative="1" as="geometry">
            <mxPoint x="-749" y="1806" as="sourcePoint" />
          </mxGeometry>
        </mxCell>
        <mxCell id="uznuza7RhrSrtAUMvU-b-14" value="&lt;font style=&quot;font-size: 24px;&quot;&gt;Side Effects&lt;/font&gt;" style="rounded=0;whiteSpace=wrap;html=1;fillColor=#e1d5e7;strokeColor=#9673a6;" parent="1" vertex="1">
          <mxGeometry x="-893" y="2044" width="120" height="60" as="geometry" />
        </mxCell>
        <mxCell id="uznuza7RhrSrtAUMvU-b-15" style="rounded=0;orthogonalLoop=1;jettySize=auto;html=1;" parent="1" source="uznuza7RhrSrtAUMvU-b-1" target="uznuza7RhrSrtAUMvU-b-16" edge="1">
          <mxGeometry relative="1" as="geometry">
            <mxPoint x="-593" y="1776" as="sourcePoint" />
          </mxGeometry>
        </mxCell>
        <mxCell id="uznuza7RhrSrtAUMvU-b-16" value="&lt;font style=&quot;font-size: 24px;&quot;&gt;Safety Warnings&lt;/font&gt;" style="rounded=0;whiteSpace=wrap;html=1;fillColor=#fff2cc;strokeColor=#d6b656;" parent="1" vertex="1">
          <mxGeometry x="-893" y="2163" width="120" height="60" as="geometry" />
        </mxCell>
        <mxCell id="uznuza7RhrSrtAUMvU-b-17" style="rounded=0;orthogonalLoop=1;jettySize=auto;html=1;" parent="1" source="uznuza7RhrSrtAUMvU-b-1" target="uznuza7RhrSrtAUMvU-b-18" edge="1">
          <mxGeometry relative="1" as="geometry">
            <mxPoint x="-469" y="1784.9982608695655" as="sourcePoint" />
          </mxGeometry>
        </mxCell>
        <mxCell id="uznuza7RhrSrtAUMvU-b-18" value="&lt;font style=&quot;font-size: 24px;&quot;&gt;Drug Interactions&lt;/font&gt;" style="rounded=0;whiteSpace=wrap;html=1;fillColor=#cdeb8b;strokeColor=#36393d;" parent="1" vertex="1">
          <mxGeometry x="-821" y="1707" width="120" height="60" as="geometry" />
        </mxCell>
        <mxCell id="uznuza7RhrSrtAUMvU-b-19" style="rounded=0;orthogonalLoop=1;jettySize=auto;html=1;" parent="1" source="uznuza7RhrSrtAUMvU-b-1" target="uznuza7RhrSrtAUMvU-b-20" edge="1">
          <mxGeometry relative="1" as="geometry">
            <mxPoint x="-399" y="1923" as="sourcePoint" />
          </mxGeometry>
        </mxCell>
        <mxCell id="uznuza7RhrSrtAUMvU-b-20" value="&lt;font style=&quot;font-size: 24px;&quot;&gt;Therapeutic Class&lt;/font&gt;" style="rounded=0;whiteSpace=wrap;html=1;fillColor=#ffff88;strokeColor=#36393d;" parent="1" vertex="1">
          <mxGeometry x="-825" y="1454" width="120" height="60" as="geometry" />
        </mxCell>
        <mxCell id="uznuza7RhrSrtAUMvU-b-21" style="rounded=0;orthogonalLoop=1;jettySize=auto;html=1;" parent="1" source="uznuza7RhrSrtAUMvU-b-1" target="uznuza7RhrSrtAUMvU-b-22" edge="1">
          <mxGeometry relative="1" as="geometry">
            <mxPoint x="-259" y="2034" as="sourcePoint" />
          </mxGeometry>
        </mxCell>
        <mxCell id="uznuza7RhrSrtAUMvU-b-22" value="&lt;font style=&quot;font-size: 24px;&quot;&gt;Chemical Class&lt;/font&gt;" style="rounded=0;whiteSpace=wrap;html=1;fillColor=#ffff88;strokeColor=#36393d;" parent="1" vertex="1">
          <mxGeometry x="-823" y="1624" width="120" height="60" as="geometry" />
        </mxCell>
        <mxCell id="uznuza7RhrSrtAUMvU-b-25" value="" style="rounded=0;orthogonalLoop=1;jettySize=auto;html=1;" parent="1" source="uznuza7RhrSrtAUMvU-b-1" target="uznuza7RhrSrtAUMvU-b-9" edge="1">
          <mxGeometry relative="1" as="geometry">
            <mxPoint x="-1202" y="2003" as="sourcePoint" />
            <mxPoint x="-647" y="2147" as="targetPoint" />
          </mxGeometry>
        </mxCell>
        <mxCell id="uznuza7RhrSrtAUMvU-b-9" value="&lt;font style=&quot;font-size: 24px;&quot;&gt;Drug Uses&lt;/font&gt;" style="rounded=0;whiteSpace=wrap;html=1;fillColor=#ffcc99;strokeColor=#36393d;" parent="1" vertex="1">
          <mxGeometry x="-919" y="2293" width="120" height="60" as="geometry" />
        </mxCell>
        <mxCell id="uznuza7RhrSrtAUMvU-b-2" value="&lt;font style=&quot;font-size: 24px;&quot;&gt;Salt Composition&lt;/font&gt;" style="rounded=0;whiteSpace=wrap;html=1;" parent="1" vertex="1">
          <mxGeometry x="-1421" y="2088" width="145" height="60" as="geometry" />
        </mxCell>
        <mxCell id="uznuza7RhrSrtAUMvU-b-26" style="rounded=0;orthogonalLoop=1;jettySize=auto;html=1;" parent="1" source="uznuza7RhrSrtAUMvU-b-1" target="uznuza7RhrSrtAUMvU-b-27" edge="1">
          <mxGeometry relative="1" as="geometry">
            <mxPoint x="-1394" y="1915" as="sourcePoint" />
          </mxGeometry>
        </mxCell>
        <mxCell id="uznuza7RhrSrtAUMvU-b-27" value="&lt;font style=&quot;font-size: 24px;&quot;&gt;Action Class&lt;/font&gt;" style="rounded=0;whiteSpace=wrap;html=1;fillColor=#ffff88;strokeColor=#36393d;" parent="1" vertex="1">
          <mxGeometry x="-825" y="1539" width="120" height="60" as="geometry" />
        </mxCell>
        <mxCell id="uznuza7RhrSrtAUMvU-b-129" style="rounded=0;orthogonalLoop=1;jettySize=auto;html=1;" parent="1" source="uznuza7RhrSrtAUMvU-b-29" target="uznuza7RhrSrtAUMvU-b-128" edge="1">
          <mxGeometry relative="1" as="geometry" />
        </mxCell>
        <mxCell id="uznuza7RhrSrtAUMvU-b-29" value="&lt;font style=&quot;font-size: 36px;&quot;&gt;&lt;b style=&quot;&quot;&gt;DrugBank&lt;/b&gt;&lt;/font&gt;" style="rounded=0;whiteSpace=wrap;html=1;fillColor=#E692C7;strokeColor=#36393d;" parent="1" vertex="1">
          <mxGeometry x="-154" y="2000" width="208" height="108" as="geometry" />
        </mxCell>
        <mxCell id="uznuza7RhrSrtAUMvU-b-30" style="rounded=0;orthogonalLoop=1;jettySize=auto;html=1;" parent="1" source="uznuza7RhrSrtAUMvU-b-29" target="uznuza7RhrSrtAUMvU-b-31" edge="1">
          <mxGeometry relative="1" as="geometry">
            <mxPoint x="379" y="1789.0040480274442" as="sourcePoint" />
          </mxGeometry>
        </mxCell>
        <mxCell id="uznuza7RhrSrtAUMvU-b-31" value="&lt;font style=&quot;font-size: 24px;&quot;&gt;Clearance&lt;/font&gt;" style="rounded=0;whiteSpace=wrap;html=1;" parent="1" vertex="1">
          <mxGeometry x="185" y="1951" width="120" height="60" as="geometry" />
        </mxCell>
        <mxCell id="uznuza7RhrSrtAUMvU-b-32" style="rounded=0;orthogonalLoop=1;jettySize=auto;html=1;" parent="1" source="uznuza7RhrSrtAUMvU-b-29" target="uznuza7RhrSrtAUMvU-b-33" edge="1">
          <mxGeometry relative="1" as="geometry">
            <mxPoint x="195" y="2004.2314285714285" as="sourcePoint" />
            <Array as="points" />
          </mxGeometry>
        </mxCell>
        <mxCell id="uznuza7RhrSrtAUMvU-b-33" value="&lt;font style=&quot;font-size: 24px;&quot;&gt;Route of Elimination&lt;/font&gt;" style="rounded=0;whiteSpace=wrap;html=1;fillColor=#ffcccc;strokeColor=#36393d;" parent="1" vertex="1">
          <mxGeometry x="175" y="2340" width="120" height="60" as="geometry" />
        </mxCell>
        <mxCell id="uznuza7RhrSrtAUMvU-b-34" style="rounded=0;orthogonalLoop=1;jettySize=auto;html=1;" parent="1" source="uznuza7RhrSrtAUMvU-b-29" target="uznuza7RhrSrtAUMvU-b-35" edge="1">
          <mxGeometry relative="1" as="geometry">
            <mxPoint x="195" y="1988.004827586207" as="sourcePoint" />
          </mxGeometry>
        </mxCell>
        <mxCell id="uznuza7RhrSrtAUMvU-b-35" value="&lt;font style=&quot;font-size: 24px;&quot;&gt;Half-Life&lt;/font&gt;" style="rounded=0;whiteSpace=wrap;html=1;fillColor=#fff2cc;strokeColor=#d6b656;" parent="1" vertex="1">
          <mxGeometry x="476" y="2311" width="120" height="60" as="geometry" />
        </mxCell>
        <mxCell id="uznuza7RhrSrtAUMvU-b-36" style="rounded=0;orthogonalLoop=1;jettySize=auto;html=1;" parent="1" source="uznuza7RhrSrtAUMvU-b-29" target="uznuza7RhrSrtAUMvU-b-37" edge="1">
          <mxGeometry relative="1" as="geometry">
            <mxPoint x="210.8400000000006" y="2007.66" as="sourcePoint" />
          </mxGeometry>
        </mxCell>
        <mxCell id="uznuza7RhrSrtAUMvU-b-37" value="&lt;font style=&quot;font-size: 24px;&quot;&gt;Metabolism&lt;/font&gt;" style="rounded=0;whiteSpace=wrap;html=1;fillColor=#f8cecc;strokeColor=#b85450;" parent="1" vertex="1">
          <mxGeometry x="371" y="2405" width="120" height="60" as="geometry" />
        </mxCell>
        <mxCell id="uznuza7RhrSrtAUMvU-b-38" style="rounded=0;orthogonalLoop=1;jettySize=auto;html=1;" parent="1" source="uznuza7RhrSrtAUMvU-b-29" target="uznuza7RhrSrtAUMvU-b-39" edge="1">
          <mxGeometry relative="1" as="geometry">
            <mxPoint x="-165" y="2148" as="sourcePoint" />
          </mxGeometry>
        </mxCell>
        <mxCell id="uznuza7RhrSrtAUMvU-b-39" value="&lt;font style=&quot;font-size: 24px;&quot;&gt;Associated&amp;nbsp;&lt;/font&gt;&lt;div&gt;&lt;font style=&quot;font-size: 24px;&quot;&gt;Therapies&lt;/font&gt;&lt;/div&gt;" style="rounded=0;whiteSpace=wrap;html=1;fillColor=#ffcc99;strokeColor=#36393d;" parent="1" vertex="1">
          <mxGeometry x="-518" y="2293" width="120" height="60" as="geometry" />
        </mxCell>
        <mxCell id="uznuza7RhrSrtAUMvU-b-40" style="rounded=0;orthogonalLoop=1;jettySize=auto;html=1;" parent="1" source="uznuza7RhrSrtAUMvU-b-29" target="uznuza7RhrSrtAUMvU-b-41" edge="1">
          <mxGeometry relative="1" as="geometry">
            <mxPoint x="-155" y="2158" as="sourcePoint" />
          </mxGeometry>
        </mxCell>
        <mxCell id="uznuza7RhrSrtAUMvU-b-41" value="&lt;font style=&quot;font-size: 24px;&quot;&gt;Associated Conditions&lt;/font&gt;" style="rounded=0;whiteSpace=wrap;html=1;fillColor=#ffcc99;strokeColor=#36393d;" parent="1" vertex="1">
          <mxGeometry x="-510" y="2384" width="120" height="60" as="geometry" />
        </mxCell>
        <mxCell id="uznuza7RhrSrtAUMvU-b-42" style="rounded=0;orthogonalLoop=1;jettySize=auto;html=1;" parent="1" source="uznuza7RhrSrtAUMvU-b-29" target="uznuza7RhrSrtAUMvU-b-43" edge="1">
          <mxGeometry relative="1" as="geometry">
            <mxPoint x="-145" y="2168" as="sourcePoint" />
          </mxGeometry>
        </mxCell>
        <mxCell id="uznuza7RhrSrtAUMvU-b-43" value="&lt;font style=&quot;font-size: 24px;&quot;&gt;Adverse Effects&lt;/font&gt;" style="rounded=0;whiteSpace=wrap;html=1;fillColor=#e1d5e7;strokeColor=#9673a6;" parent="1" vertex="1">
          <mxGeometry x="-588" y="2014" width="120" height="60" as="geometry" />
        </mxCell>
        <mxCell id="uznuza7RhrSrtAUMvU-b-44" style="rounded=0;orthogonalLoop=1;jettySize=auto;html=1;" parent="1" source="uznuza7RhrSrtAUMvU-b-29" target="uznuza7RhrSrtAUMvU-b-45" edge="1">
          <mxGeometry relative="1" as="geometry">
            <mxPoint x="-135" y="2178" as="sourcePoint" />
          </mxGeometry>
        </mxCell>
        <mxCell id="uznuza7RhrSrtAUMvU-b-45" value="&lt;font style=&quot;font-size: 24px;&quot;&gt;Molecule Type&amp;nbsp;&lt;/font&gt;" style="rounded=0;whiteSpace=wrap;html=1;" parent="1" vertex="1">
          <mxGeometry x="-72" y="1814" width="120" height="60" as="geometry" />
        </mxCell>
        <mxCell id="uznuza7RhrSrtAUMvU-b-46" style="rounded=0;orthogonalLoop=1;jettySize=auto;html=1;" parent="1" source="uznuza7RhrSrtAUMvU-b-29" target="uznuza7RhrSrtAUMvU-b-47" edge="1">
          <mxGeometry relative="1" as="geometry">
            <mxPoint x="307.78195488721803" y="2007.66" as="sourcePoint" />
          </mxGeometry>
        </mxCell>
        <mxCell id="uznuza7RhrSrtAUMvU-b-47" value="&lt;font style=&quot;font-size: 24px;&quot;&gt;Safety Warnings&lt;/font&gt;" style="rounded=0;whiteSpace=wrap;html=1;fillColor=#fff2cc;strokeColor=#d6b656;" parent="1" vertex="1">
          <mxGeometry x="-461" y="2106" width="120" height="60" as="geometry" />
        </mxCell>
        <mxCell id="uznuza7RhrSrtAUMvU-b-48" style="rounded=0;orthogonalLoop=1;jettySize=auto;html=1;" parent="1" source="uznuza7RhrSrtAUMvU-b-29" target="uznuza7RhrSrtAUMvU-b-49" edge="1">
          <mxGeometry relative="1" as="geometry">
            <mxPoint x="280.4935622317598" y="2007.66" as="sourcePoint" />
          </mxGeometry>
        </mxCell>
        <mxCell id="uznuza7RhrSrtAUMvU-b-49" value="&lt;font style=&quot;font-size: 24px;&quot;&gt;Mechanism of Action&lt;/font&gt;" style="rounded=0;whiteSpace=wrap;html=1;fillColor=#eeeeee;strokeColor=#36393d;" parent="1" vertex="1">
          <mxGeometry x="-447" y="1851" width="120" height="60" as="geometry" />
        </mxCell>
        <mxCell id="uznuza7RhrSrtAUMvU-b-50" style="rounded=0;orthogonalLoop=1;jettySize=auto;html=1;" parent="1" source="uznuza7RhrSrtAUMvU-b-29" target="uznuza7RhrSrtAUMvU-b-51" edge="1">
          <mxGeometry relative="1" as="geometry">
            <mxPoint x="265.78947368421086" y="2007.66" as="sourcePoint" />
          </mxGeometry>
        </mxCell>
        <mxCell id="uznuza7RhrSrtAUMvU-b-51" value="&lt;font style=&quot;font-size: 24px;&quot;&gt;Absorption&lt;/font&gt;" style="rounded=0;whiteSpace=wrap;html=1;fillColor=#cce5ff;strokeColor=#36393d;" parent="1" vertex="1">
          <mxGeometry x="666" y="2335" width="120" height="60" as="geometry" />
        </mxCell>
        <mxCell id="uznuza7RhrSrtAUMvU-b-52" style="rounded=0;orthogonalLoop=1;jettySize=auto;html=1;" parent="1" source="uznuza7RhrSrtAUMvU-b-29" target="uznuza7RhrSrtAUMvU-b-53" edge="1">
          <mxGeometry relative="1" as="geometry">
            <mxPoint x="225.58495821727" y="2007.66" as="sourcePoint" />
          </mxGeometry>
        </mxCell>
        <mxCell id="uznuza7RhrSrtAUMvU-b-53" value="&lt;font style=&quot;font-size: 24px;&quot;&gt;Protein Binding Level&lt;/font&gt;" style="rounded=0;whiteSpace=wrap;html=1;fillColor=#ffff88;strokeColor=#36393d;" parent="1" vertex="1">
          <mxGeometry x="-122" y="2345" width="120" height="80" as="geometry" />
        </mxCell>
        <mxCell id="uznuza7RhrSrtAUMvU-b-54" style="rounded=0;orthogonalLoop=1;jettySize=auto;html=1;" parent="1" source="uznuza7RhrSrtAUMvU-b-29" target="uznuza7RhrSrtAUMvU-b-55" edge="1">
          <mxGeometry relative="1" as="geometry">
            <mxPoint x="241.5745856353592" y="2007.66" as="sourcePoint" />
          </mxGeometry>
        </mxCell>
        <mxCell id="uznuza7RhrSrtAUMvU-b-55" value="&lt;font style=&quot;font-size: 24px;&quot;&gt;Volume of Distribution&lt;/font&gt;" style="rounded=0;whiteSpace=wrap;html=1;fillColor=#cdeb8b;strokeColor=#36393d;" parent="1" vertex="1">
          <mxGeometry x="22" y="2342" width="120" height="60" as="geometry" />
        </mxCell>
        <mxCell id="uznuza7RhrSrtAUMvU-b-56" style="rounded=0;orthogonalLoop=1;jettySize=auto;html=1;" parent="1" source="uznuza7RhrSrtAUMvU-b-29" target="uznuza7RhrSrtAUMvU-b-57" edge="1">
          <mxGeometry relative="1" as="geometry">
            <mxPoint x="319" y="2026" as="sourcePoint" />
          </mxGeometry>
        </mxCell>
        <mxCell id="uznuza7RhrSrtAUMvU-b-57" value="&lt;font style=&quot;font-size: 24px;&quot;&gt;Pharmacodynamics&lt;/font&gt;" style="rounded=0;whiteSpace=wrap;html=1;fillColor=#e1d5e7;strokeColor=#9673a6;" parent="1" vertex="1">
          <mxGeometry x="517" y="2209" width="213" height="76" as="geometry" />
        </mxCell>
        <mxCell id="uznuza7RhrSrtAUMvU-b-61" style="rounded=0;orthogonalLoop=1;jettySize=auto;html=1;" parent="1" source="uznuza7RhrSrtAUMvU-b-29" target="uznuza7RhrSrtAUMvU-b-62" edge="1">
          <mxGeometry relative="1" as="geometry">
            <mxPoint x="-55" y="2258" as="sourcePoint" />
          </mxGeometry>
        </mxCell>
        <mxCell id="uznuza7RhrSrtAUMvU-b-62" value="&lt;font style=&quot;font-size: 24px;&quot;&gt;Food Interaction&lt;/font&gt;" style="rounded=0;whiteSpace=wrap;html=1;fillColor=#fff2cc;strokeColor=#d6b656;" parent="1" vertex="1">
          <mxGeometry x="-465" y="2191" width="120" height="60" as="geometry" />
        </mxCell>
        <mxCell id="uznuza7RhrSrtAUMvU-b-63" style="rounded=0;orthogonalLoop=1;jettySize=auto;html=1;" parent="1" source="uznuza7RhrSrtAUMvU-b-29" target="uznuza7RhrSrtAUMvU-b-64" edge="1">
          <mxGeometry relative="1" as="geometry">
            <mxPoint x="-45" y="2268" as="sourcePoint" />
          </mxGeometry>
        </mxCell>
        <mxCell id="uznuza7RhrSrtAUMvU-b-64" value="&lt;font style=&quot;font-size: 24px;&quot;&gt;Chemical Taxonomy&lt;/font&gt;" style="rounded=0;whiteSpace=wrap;html=1;fillColor=#ffff88;strokeColor=#36393d;" parent="1" vertex="1">
          <mxGeometry x="-465" y="1604" width="120" height="60" as="geometry" />
        </mxCell>
        <mxCell id="uznuza7RhrSrtAUMvU-b-65" style="rounded=0;orthogonalLoop=1;jettySize=auto;html=1;" parent="1" source="uznuza7RhrSrtAUMvU-b-29" target="uznuza7RhrSrtAUMvU-b-66" edge="1">
          <mxGeometry relative="1" as="geometry">
            <mxPoint x="-35" y="2278" as="sourcePoint" />
          </mxGeometry>
        </mxCell>
        <mxCell id="uznuza7RhrSrtAUMvU-b-66" value="&lt;font style=&quot;font-size: 24px;&quot;&gt;Drug Interactions&lt;/font&gt;" style="rounded=0;whiteSpace=wrap;html=1;fillColor=#cdeb8b;strokeColor=#36393d;" parent="1" vertex="1">
          <mxGeometry x="-447" y="1707" width="120" height="60" as="geometry" />
        </mxCell>
        <mxCell id="uznuza7RhrSrtAUMvU-b-67" style="rounded=0;orthogonalLoop=1;jettySize=auto;html=1;" parent="1" source="uznuza7RhrSrtAUMvU-b-29" target="uznuza7RhrSrtAUMvU-b-68" edge="1">
          <mxGeometry relative="1" as="geometry">
            <mxPoint x="188" y="1682" as="sourcePoint" />
          </mxGeometry>
        </mxCell>
        <mxCell id="uznuza7RhrSrtAUMvU-b-68" value="&lt;font style=&quot;font-size: 24px;&quot;&gt;Toxicity&lt;/font&gt;" style="rounded=0;whiteSpace=wrap;html=1;fillColor=#dae8fc;strokeColor=#6c8ebf;" parent="1" vertex="1">
          <mxGeometry x="312" y="2272" width="120" height="60" as="geometry" />
        </mxCell>
        <mxCell id="uznuza7RhrSrtAUMvU-b-70" style="rounded=0;orthogonalLoop=1;jettySize=auto;html=1;" parent="1" source="uznuza7RhrSrtAUMvU-b-29" target="uznuza7RhrSrtAUMvU-b-71" edge="1">
          <mxGeometry relative="1" as="geometry">
            <mxPoint x="-15" y="2298" as="sourcePoint" />
          </mxGeometry>
        </mxCell>
        <mxCell id="uznuza7RhrSrtAUMvU-b-71" value="&lt;font style=&quot;font-size: 24px;&quot;&gt;Dosage Forms&lt;/font&gt;" style="rounded=0;whiteSpace=wrap;html=1;" parent="1" vertex="1">
          <mxGeometry x="98" y="1851" width="120" height="60" as="geometry" />
        </mxCell>
        <mxCell id="uznuza7RhrSrtAUMvU-b-77" value="" style="endArrow=classic;startArrow=classic;html=1;rounded=0;" parent="1" source="uznuza7RhrSrtAUMvU-b-20" target="uznuza7RhrSrtAUMvU-b-64" edge="1">
          <mxGeometry width="50" height="50" relative="1" as="geometry">
            <mxPoint x="-511" y="1764" as="sourcePoint" />
            <mxPoint x="-461" y="1714" as="targetPoint" />
          </mxGeometry>
        </mxCell>
        <mxCell id="uznuza7RhrSrtAUMvU-b-78" value="" style="endArrow=classic;startArrow=classic;html=1;rounded=0;" parent="1" source="uznuza7RhrSrtAUMvU-b-27" target="uznuza7RhrSrtAUMvU-b-64" edge="1">
          <mxGeometry width="50" height="50" relative="1" as="geometry">
            <mxPoint x="-511" y="1764" as="sourcePoint" />
            <mxPoint x="-461" y="1714" as="targetPoint" />
          </mxGeometry>
        </mxCell>
        <mxCell id="uznuza7RhrSrtAUMvU-b-79" value="" style="endArrow=classic;startArrow=classic;html=1;rounded=0;" parent="1" source="uznuza7RhrSrtAUMvU-b-22" target="uznuza7RhrSrtAUMvU-b-64" edge="1">
          <mxGeometry width="50" height="50" relative="1" as="geometry">
            <mxPoint x="-511" y="1764" as="sourcePoint" />
            <mxPoint x="-461" y="1714" as="targetPoint" />
          </mxGeometry>
        </mxCell>
        <mxCell id="uznuza7RhrSrtAUMvU-b-81" value="" style="endArrow=classic;startArrow=classic;html=1;rounded=0;" parent="1" source="uznuza7RhrSrtAUMvU-b-18" target="uznuza7RhrSrtAUMvU-b-66" edge="1">
          <mxGeometry width="50" height="50" relative="1" as="geometry">
            <mxPoint x="-518" y="1702" as="sourcePoint" />
            <mxPoint x="-468" y="1652" as="targetPoint" />
          </mxGeometry>
        </mxCell>
        <mxCell id="uznuza7RhrSrtAUMvU-b-87" value="" style="endArrow=classic;startArrow=classic;html=1;rounded=0;" parent="1" source="uznuza7RhrSrtAUMvU-b-9" target="uznuza7RhrSrtAUMvU-b-39" edge="1">
          <mxGeometry width="50" height="50" relative="1" as="geometry">
            <mxPoint x="-518" y="1925" as="sourcePoint" />
            <mxPoint x="-468" y="1875" as="targetPoint" />
          </mxGeometry>
        </mxCell>
        <mxCell id="uznuza7RhrSrtAUMvU-b-88" value="" style="endArrow=classic;startArrow=classic;html=1;rounded=0;" parent="1" source="uznuza7RhrSrtAUMvU-b-9" target="uznuza7RhrSrtAUMvU-b-41" edge="1">
          <mxGeometry width="50" height="50" relative="1" as="geometry">
            <mxPoint x="-518" y="1925" as="sourcePoint" />
            <mxPoint x="-468" y="1875" as="targetPoint" />
          </mxGeometry>
        </mxCell>
        <mxCell id="uznuza7RhrSrtAUMvU-b-89" value="" style="endArrow=classic;startArrow=classic;html=1;rounded=0;" parent="1" source="uznuza7RhrSrtAUMvU-b-12" target="uznuza7RhrSrtAUMvU-b-49" edge="1">
          <mxGeometry width="50" height="50" relative="1" as="geometry">
            <mxPoint x="-515" y="2056" as="sourcePoint" />
            <mxPoint x="-465" y="2006" as="targetPoint" />
          </mxGeometry>
        </mxCell>
        <mxCell id="uznuza7RhrSrtAUMvU-b-90" value="" style="endArrow=classic;startArrow=classic;html=1;rounded=0;" parent="1" source="uznuza7RhrSrtAUMvU-b-14" target="uznuza7RhrSrtAUMvU-b-43" edge="1">
          <mxGeometry width="50" height="50" relative="1" as="geometry">
            <mxPoint x="-515" y="2056" as="sourcePoint" />
            <mxPoint x="-465" y="2006" as="targetPoint" />
          </mxGeometry>
        </mxCell>
        <mxCell id="uznuza7RhrSrtAUMvU-b-93" value="" style="endArrow=classic;startArrow=classic;html=1;rounded=0;" parent="1" source="uznuza7RhrSrtAUMvU-b-16" target="uznuza7RhrSrtAUMvU-b-62" edge="1">
          <mxGeometry width="50" height="50" relative="1" as="geometry">
            <mxPoint x="-688" y="2004" as="sourcePoint" />
            <mxPoint x="-421" y="2004" as="targetPoint" />
          </mxGeometry>
        </mxCell>
        <mxCell id="uznuza7RhrSrtAUMvU-b-94" value="" style="endArrow=classic;startArrow=classic;html=1;rounded=0;" parent="1" source="uznuza7RhrSrtAUMvU-b-16" target="uznuza7RhrSrtAUMvU-b-47" edge="1">
          <mxGeometry width="50" height="50" relative="1" as="geometry">
            <mxPoint x="-678" y="2014" as="sourcePoint" />
            <mxPoint x="-411" y="2014" as="targetPoint" />
          </mxGeometry>
        </mxCell>
        <mxCell id="uznuza7RhrSrtAUMvU-b-144" style="rounded=0;orthogonalLoop=1;jettySize=auto;html=1;entryX=0.5;entryY=1;entryDx=0;entryDy=0;" parent="1" source="uznuza7RhrSrtAUMvU-b-95" target="uznuza7RhrSrtAUMvU-b-143" edge="1">
          <mxGeometry relative="1" as="geometry" />
        </mxCell>
        <mxCell id="uznuza7RhrSrtAUMvU-b-95" value="&lt;font style=&quot;font-size: 20px;&quot;&gt;&lt;b&gt;PubChem&lt;/b&gt;&lt;/font&gt;" style="rounded=0;whiteSpace=wrap;html=1;fillColor=#bac8d3;strokeColor=#23445d;" parent="1" vertex="1">
          <mxGeometry y="2870" width="120" height="60" as="geometry" />
        </mxCell>
        <mxCell id="uznuza7RhrSrtAUMvU-b-96" value="&lt;font style=&quot;font-size: 24px;&quot;&gt;Toxicity&lt;/font&gt;" style="rounded=0;whiteSpace=wrap;html=1;fillColor=#dae8fc;strokeColor=#6c8ebf;" parent="1" vertex="1">
          <mxGeometry x="178" y="2652" width="120" height="60" as="geometry" />
        </mxCell>
        <mxCell id="uznuza7RhrSrtAUMvU-b-97" value="" style="endArrow=classic;html=1;rounded=0;" parent="1" source="uznuza7RhrSrtAUMvU-b-95" target="uznuza7RhrSrtAUMvU-b-96" edge="1">
          <mxGeometry width="50" height="50" relative="1" as="geometry">
            <mxPoint x="180.00104477611944" y="2906" as="sourcePoint" />
            <mxPoint x="205.21000000000004" y="2817" as="targetPoint" />
          </mxGeometry>
        </mxCell>
        <mxCell id="uznuza7RhrSrtAUMvU-b-98" value="&lt;font style=&quot;font-size: 24px;&quot;&gt;Acute Effects&lt;/font&gt;" style="rounded=0;whiteSpace=wrap;html=1;fillColor=#fff2cc;strokeColor=#d6b656;" parent="1" vertex="1">
          <mxGeometry x="-483" y="2883" width="120" height="60" as="geometry" />
        </mxCell>
        <mxCell id="uznuza7RhrSrtAUMvU-b-99" value="" style="endArrow=classic;html=1;rounded=0;" parent="1" source="uznuza7RhrSrtAUMvU-b-95" target="uznuza7RhrSrtAUMvU-b-98" edge="1">
          <mxGeometry width="50" height="50" relative="1" as="geometry">
            <mxPoint x="190.21000000000004" y="2916" as="sourcePoint" />
            <mxPoint x="215.21000000000004" y="2827" as="targetPoint" />
          </mxGeometry>
        </mxCell>
        <mxCell id="uznuza7RhrSrtAUMvU-b-100" value="&lt;font style=&quot;font-size: 24px;&quot;&gt;Safety Hazards&lt;/font&gt;" style="rounded=0;whiteSpace=wrap;html=1;fillColor=#fff2cc;strokeColor=#d6b656;" parent="1" vertex="1">
          <mxGeometry x="-169" y="2930" width="120" height="60" as="geometry" />
        </mxCell>
        <mxCell id="uznuza7RhrSrtAUMvU-b-101" value="" style="endArrow=classic;html=1;rounded=0;" parent="1" source="uznuza7RhrSrtAUMvU-b-95" target="uznuza7RhrSrtAUMvU-b-100" edge="1">
          <mxGeometry width="50" height="50" relative="1" as="geometry">
            <mxPoint x="200.21000000000004" y="2926" as="sourcePoint" />
            <mxPoint x="225.21000000000004" y="2837" as="targetPoint" />
          </mxGeometry>
        </mxCell>
        <mxCell id="uznuza7RhrSrtAUMvU-b-102" value="&lt;font style=&quot;font-size: 24px;&quot;&gt;Uses&lt;/font&gt;" style="rounded=0;whiteSpace=wrap;html=1;fillColor=#ffcc99;strokeColor=#36393d;" parent="1" vertex="1">
          <mxGeometry x="-844" y="2763" width="120" height="60" as="geometry" />
        </mxCell>
        <mxCell id="uznuza7RhrSrtAUMvU-b-103" value="" style="endArrow=classic;html=1;rounded=0;" parent="1" source="uznuza7RhrSrtAUMvU-b-95" target="uznuza7RhrSrtAUMvU-b-102" edge="1">
          <mxGeometry width="50" height="50" relative="1" as="geometry">
            <mxPoint x="210.21000000000004" y="2936" as="sourcePoint" />
            <mxPoint x="235.21000000000004" y="2847" as="targetPoint" />
          </mxGeometry>
        </mxCell>
        <mxCell id="uznuza7RhrSrtAUMvU-b-104" value="&lt;font style=&quot;font-size: 24px;&quot;&gt;Biological Half-life&lt;/font&gt;" style="rounded=0;whiteSpace=wrap;html=1;fillColor=#fff2cc;strokeColor=#d6b656;" parent="1" vertex="1">
          <mxGeometry x="491" y="2532" width="120" height="60" as="geometry" />
        </mxCell>
        <mxCell id="uznuza7RhrSrtAUMvU-b-105" value="" style="endArrow=classic;html=1;rounded=0;" parent="1" source="uznuza7RhrSrtAUMvU-b-95" target="uznuza7RhrSrtAUMvU-b-104" edge="1">
          <mxGeometry width="50" height="50" relative="1" as="geometry">
            <mxPoint x="220.21000000000004" y="2946" as="sourcePoint" />
            <mxPoint x="245.21000000000004" y="2857" as="targetPoint" />
          </mxGeometry>
        </mxCell>
        <mxCell id="uznuza7RhrSrtAUMvU-b-107" value="" style="endArrow=classic;html=1;rounded=0;" parent="1" source="uznuza7RhrSrtAUMvU-b-95" target="uznuza7RhrSrtAUMvU-b-106" edge="1">
          <mxGeometry width="50" height="50" relative="1" as="geometry">
            <mxPoint x="230.21000000000004" y="2956" as="sourcePoint" />
            <mxPoint x="255.21000000000004" y="2867" as="targetPoint" />
          </mxGeometry>
        </mxCell>
        <mxCell id="uznuza7RhrSrtAUMvU-b-108" value="&lt;font style=&quot;font-size: 24px;&quot;&gt;Metabolism&lt;/font&gt;" style="rounded=0;whiteSpace=wrap;html=1;fillColor=#f8cecc;strokeColor=#b85450;" parent="1" vertex="1">
          <mxGeometry x="323" y="2547" width="120" height="60" as="geometry" />
        </mxCell>
        <mxCell id="uznuza7RhrSrtAUMvU-b-110" value="&lt;font style=&quot;font-size: 24px;&quot;&gt;Volume Distribution&lt;/font&gt;" style="rounded=0;whiteSpace=wrap;html=1;fillColor=#cdeb8b;strokeColor=#36393d;" parent="1" vertex="1">
          <mxGeometry x="7" y="2583" width="120" height="60" as="geometry" />
        </mxCell>
        <mxCell id="uznuza7RhrSrtAUMvU-b-111" value="" style="endArrow=classic;html=1;rounded=0;" parent="1" source="uznuza7RhrSrtAUMvU-b-95" target="uznuza7RhrSrtAUMvU-b-110" edge="1">
          <mxGeometry width="50" height="50" relative="1" as="geometry">
            <mxPoint x="250.21000000000004" y="2976" as="sourcePoint" />
            <mxPoint x="275.21000000000004" y="2887" as="targetPoint" />
          </mxGeometry>
        </mxCell>
        <mxCell id="uznuza7RhrSrtAUMvU-b-112" value="&lt;font style=&quot;font-size: 24px;&quot;&gt;Route of Elimination&lt;/font&gt;" style="rounded=0;whiteSpace=wrap;html=1;fillColor=#ffcccc;strokeColor=#36393d;" parent="1" vertex="1">
          <mxGeometry x="129" y="2502" width="120" height="60" as="geometry" />
        </mxCell>
        <mxCell id="uznuza7RhrSrtAUMvU-b-113" value="" style="endArrow=classic;html=1;rounded=0;" parent="1" source="uznuza7RhrSrtAUMvU-b-95" target="uznuza7RhrSrtAUMvU-b-112" edge="1">
          <mxGeometry width="50" height="50" relative="1" as="geometry">
            <mxPoint x="260.21000000000004" y="2986" as="sourcePoint" />
            <mxPoint x="285.21000000000004" y="2897" as="targetPoint" />
          </mxGeometry>
        </mxCell>
        <mxCell id="uznuza7RhrSrtAUMvU-b-114" value="&lt;font style=&quot;font-size: 24px;&quot;&gt;Absorption&lt;/font&gt;" style="rounded=0;whiteSpace=wrap;html=1;fillColor=#cce5ff;strokeColor=#36393d;" parent="1" vertex="1">
          <mxGeometry x="643" y="2580" width="120" height="60" as="geometry" />
        </mxCell>
        <mxCell id="uznuza7RhrSrtAUMvU-b-115" value="" style="endArrow=classic;html=1;rounded=0;" parent="1" source="uznuza7RhrSrtAUMvU-b-95" target="uznuza7RhrSrtAUMvU-b-114" edge="1">
          <mxGeometry width="50" height="50" relative="1" as="geometry">
            <mxPoint x="270.21000000000004" y="2996" as="sourcePoint" />
            <mxPoint x="295.21000000000004" y="2907" as="targetPoint" />
          </mxGeometry>
        </mxCell>
        <mxCell id="uznuza7RhrSrtAUMvU-b-116" value="&lt;font style=&quot;font-size: 24px;&quot;&gt;Pharmacodynamics&lt;/font&gt;" style="rounded=0;whiteSpace=wrap;html=1;fillColor=#e1d5e7;strokeColor=#9673a6;" parent="1" vertex="1">
          <mxGeometry x="464" y="2695" width="222" height="60" as="geometry" />
        </mxCell>
        <mxCell id="uznuza7RhrSrtAUMvU-b-117" value="" style="endArrow=classic;html=1;rounded=0;" parent="1" source="uznuza7RhrSrtAUMvU-b-95" target="uznuza7RhrSrtAUMvU-b-116" edge="1">
          <mxGeometry width="50" height="50" relative="1" as="geometry">
            <mxPoint x="280.21000000000004" y="3006" as="sourcePoint" />
            <mxPoint x="305.21000000000004" y="2917" as="targetPoint" />
          </mxGeometry>
        </mxCell>
        <mxCell id="uznuza7RhrSrtAUMvU-b-118" value="&lt;font style=&quot;font-size: 24px;&quot;&gt;Food Additives Class&lt;/font&gt;" style="rounded=0;whiteSpace=wrap;html=1;" parent="1" vertex="1">
          <mxGeometry x="30" y="2968" width="155" height="92" as="geometry" />
        </mxCell>
        <mxCell id="uznuza7RhrSrtAUMvU-b-119" value="" style="endArrow=classic;html=1;rounded=0;" parent="1" source="uznuza7RhrSrtAUMvU-b-95" target="uznuza7RhrSrtAUMvU-b-118" edge="1">
          <mxGeometry width="50" height="50" relative="1" as="geometry">
            <mxPoint x="274" y="3065" as="sourcePoint" />
            <mxPoint x="315.21000000000004" y="2927" as="targetPoint" />
          </mxGeometry>
        </mxCell>
        <mxCell id="uznuza7RhrSrtAUMvU-b-120" value="&lt;font style=&quot;font-size: 24px;&quot;&gt;Drug Indications&lt;/font&gt;" style="rounded=0;whiteSpace=wrap;html=1;fillColor=#ffcc99;strokeColor=#36393d;" parent="1" vertex="1">
          <mxGeometry x="-733" y="2682" width="120" height="60" as="geometry" />
        </mxCell>
        <mxCell id="uznuza7RhrSrtAUMvU-b-121" value="" style="endArrow=classic;html=1;rounded=0;" parent="1" source="uznuza7RhrSrtAUMvU-b-95" target="uznuza7RhrSrtAUMvU-b-120" edge="1">
          <mxGeometry width="50" height="50" relative="1" as="geometry">
            <mxPoint x="300.21000000000004" y="3026" as="sourcePoint" />
            <mxPoint x="325.21000000000004" y="2937" as="targetPoint" />
          </mxGeometry>
        </mxCell>
        <mxCell id="uznuza7RhrSrtAUMvU-b-123" value="" style="endArrow=classic;html=1;rounded=0;" parent="1" source="uznuza7RhrSrtAUMvU-b-95" target="uznuza7RhrSrtAUMvU-b-122" edge="1">
          <mxGeometry width="50" height="50" relative="1" as="geometry">
            <mxPoint x="310.21000000000004" y="3036" as="sourcePoint" />
            <mxPoint x="335.21000000000004" y="2947" as="targetPoint" />
          </mxGeometry>
        </mxCell>
        <mxCell id="uznuza7RhrSrtAUMvU-b-124" value="&lt;font style=&quot;font-size: 24px;&quot;&gt;Chemical Structure&lt;/font&gt;" style="rounded=0;whiteSpace=wrap;html=1;fillColor=#cce5ff;strokeColor=#36393d;" parent="1" vertex="1">
          <mxGeometry x="-296" y="2496" width="120" height="60" as="geometry" />
        </mxCell>
        <mxCell id="uznuza7RhrSrtAUMvU-b-125" value="" style="endArrow=classic;html=1;rounded=0;" parent="1" source="uznuza7RhrSrtAUMvU-b-95" target="uznuza7RhrSrtAUMvU-b-124" edge="1">
          <mxGeometry width="50" height="50" relative="1" as="geometry">
            <mxPoint x="203" y="3153" as="sourcePoint" />
            <mxPoint x="228" y="3064" as="targetPoint" />
          </mxGeometry>
        </mxCell>
        <mxCell id="uznuza7RhrSrtAUMvU-b-126" value="&lt;font style=&quot;font-size: 24px;&quot;&gt;IUPAC Formula&lt;/font&gt;" style="rounded=0;whiteSpace=wrap;html=1;fillColor=#dae8fc;strokeColor=#6c8ebf;" parent="1" vertex="1">
          <mxGeometry x="-303" y="2661" width="120" height="60" as="geometry" />
        </mxCell>
        <mxCell id="uznuza7RhrSrtAUMvU-b-127" value="" style="endArrow=classic;html=1;rounded=0;" parent="1" source="uznuza7RhrSrtAUMvU-b-95" target="uznuza7RhrSrtAUMvU-b-126" edge="1">
          <mxGeometry width="50" height="50" relative="1" as="geometry">
            <mxPoint x="213" y="3163" as="sourcePoint" />
            <mxPoint x="238" y="3074" as="targetPoint" />
          </mxGeometry>
        </mxCell>
        <mxCell id="uznuza7RhrSrtAUMvU-b-128" value="&lt;font style=&quot;font-size: 24px;&quot;&gt;Chemical Structure&lt;/font&gt;" style="rounded=0;whiteSpace=wrap;html=1;fillColor=#cce5ff;strokeColor=#36393d;" parent="1" vertex="1">
          <mxGeometry x="-289" y="2371" width="120" height="60" as="geometry" />
        </mxCell>
        <mxCell id="uznuza7RhrSrtAUMvU-b-131" value="&lt;font style=&quot;font-size: 20px;&quot;&gt;&lt;b&gt;FDA&lt;/b&gt;&lt;/font&gt;" style="rounded=0;whiteSpace=wrap;html=1;fillColor=#b1ddf0;strokeColor=#10739e;" parent="1" vertex="1">
          <mxGeometry x="-1197" y="2405" width="120" height="60" as="geometry" />
        </mxCell>
        <mxCell id="uznuza7RhrSrtAUMvU-b-133" value="&lt;font style=&quot;font-size: 24px;&quot;&gt;Warnings&lt;/font&gt;" style="rounded=0;whiteSpace=wrap;html=1;fillColor=#fff2cc;strokeColor=#d6b656;" parent="1" vertex="1">
          <mxGeometry x="-1108" y="2280" width="120" height="60" as="geometry" />
        </mxCell>
        <mxCell id="uznuza7RhrSrtAUMvU-b-134" value="&lt;font style=&quot;font-size: 24px;&quot;&gt;Allergy Alert&lt;/font&gt;" style="rounded=0;whiteSpace=wrap;html=1;" parent="1" vertex="1">
          <mxGeometry x="-1340" y="2496" width="120" height="60" as="geometry" />
        </mxCell>
        <mxCell id="uznuza7RhrSrtAUMvU-b-135" value="&lt;font style=&quot;font-size: 24px;&quot;&gt;Uses&lt;/font&gt;" style="rounded=0;whiteSpace=wrap;html=1;fillColor=#ffcc99;strokeColor=#36393d;" parent="1" vertex="1">
          <mxGeometry x="-1039" y="2478" width="120" height="60" as="geometry" />
        </mxCell>
        <mxCell id="uznuza7RhrSrtAUMvU-b-136" value="" style="endArrow=classic;html=1;rounded=0;" parent="1" source="uznuza7RhrSrtAUMvU-b-131" target="uznuza7RhrSrtAUMvU-b-133" edge="1">
          <mxGeometry width="50" height="50" relative="1" as="geometry">
            <mxPoint x="-199" y="2984" as="sourcePoint" />
            <mxPoint x="-149" y="2934" as="targetPoint" />
          </mxGeometry>
        </mxCell>
        <mxCell id="uznuza7RhrSrtAUMvU-b-137" value="" style="endArrow=classic;html=1;rounded=0;" parent="1" source="uznuza7RhrSrtAUMvU-b-131" target="uznuza7RhrSrtAUMvU-b-135" edge="1">
          <mxGeometry width="50" height="50" relative="1" as="geometry">
            <mxPoint x="-85" y="2990" as="sourcePoint" />
            <mxPoint x="-20" y="2881" as="targetPoint" />
          </mxGeometry>
        </mxCell>
        <mxCell id="uznuza7RhrSrtAUMvU-b-138" value="" style="endArrow=classic;html=1;rounded=0;" parent="1" source="uznuza7RhrSrtAUMvU-b-131" target="uznuza7RhrSrtAUMvU-b-134" edge="1">
          <mxGeometry width="50" height="50" relative="1" as="geometry">
            <mxPoint x="-75" y="3000" as="sourcePoint" />
            <mxPoint x="-10" y="2891" as="targetPoint" />
          </mxGeometry>
        </mxCell>
        <mxCell id="uznuza7RhrSrtAUMvU-b-139" value="" style="endArrow=classic;startArrow=classic;html=1;rounded=0;" parent="1" source="uznuza7RhrSrtAUMvU-b-16" target="uznuza7RhrSrtAUMvU-b-133" edge="1">
          <mxGeometry width="50" height="50" relative="1" as="geometry">
            <mxPoint x="-536" y="2580" as="sourcePoint" />
            <mxPoint x="-486" y="2530" as="targetPoint" />
          </mxGeometry>
        </mxCell>
        <mxCell id="uznuza7RhrSrtAUMvU-b-140" value="" style="endArrow=classic;startArrow=classic;html=1;rounded=0;" parent="1" source="uznuza7RhrSrtAUMvU-b-9" target="uznuza7RhrSrtAUMvU-b-135" edge="1">
          <mxGeometry width="50" height="50" relative="1" as="geometry">
            <mxPoint x="-742" y="2303" as="sourcePoint" />
            <mxPoint x="-431" y="2854" as="targetPoint" />
          </mxGeometry>
        </mxCell>
        <mxCell id="uznuza7RhrSrtAUMvU-b-141" value="" style="endArrow=classic;startArrow=classic;html=1;rounded=0;" parent="1" source="uznuza7RhrSrtAUMvU-b-120" target="uznuza7RhrSrtAUMvU-b-9" edge="1">
          <mxGeometry width="50" height="50" relative="1" as="geometry">
            <mxPoint x="-383" y="2696" as="sourcePoint" />
            <mxPoint x="-333" y="2646" as="targetPoint" />
          </mxGeometry>
        </mxCell>
        <mxCell id="uznuza7RhrSrtAUMvU-b-143" value="&lt;b style=&quot;caret-color: rgb(0, 0, 0); color: rgb(0, 0, 0); font-style: normal; font-variant-caps: normal; letter-spacing: normal; orphans: auto; text-align: start; text-indent: 0px; text-transform: none; white-space: normal; widows: auto; word-spacing: 0px; -webkit-text-stroke-width: 0px; text-decoration: none; font-weight: normal;&quot; id=&quot;docs-internal-guid-211c4ad8-7fff-77d6-bc51-3692f871267d&quot;&gt;&lt;span style=&quot;font-family: Arial, sans-serif; color: rgb(89, 89, 89); background-color: transparent; font-weight: 400; font-style: normal; font-variant: normal; text-decoration: none; vertical-align: baseline; white-space: pre-wrap;&quot;&gt;&lt;font style=&quot;font-size: 24px;&quot;&gt;Protein Binding&lt;/font&gt;&lt;/span&gt;&lt;/b&gt;" style="rounded=0;whiteSpace=wrap;html=1;fillColor=#ffff88;strokeColor=#36393d;" parent="1" vertex="1">
          <mxGeometry x="-135" y="2515" width="120" height="60" as="geometry" />
        </mxCell>
        <mxCell id="uznuza7RhrSrtAUMvU-b-145" value="" style="endArrow=classic;startArrow=classic;html=1;rounded=0;" parent="1" source="uznuza7RhrSrtAUMvU-b-143" target="uznuza7RhrSrtAUMvU-b-53" edge="1">
          <mxGeometry width="50" height="50" relative="1" as="geometry">
            <mxPoint x="-85" y="2613" as="sourcePoint" />
            <mxPoint x="-35" y="2563" as="targetPoint" />
          </mxGeometry>
        </mxCell>
        <mxCell id="uznuza7RhrSrtAUMvU-b-146" value="" style="endArrow=classic;startArrow=classic;html=1;rounded=0;" parent="1" source="uznuza7RhrSrtAUMvU-b-124" target="uznuza7RhrSrtAUMvU-b-128" edge="1">
          <mxGeometry width="50" height="50" relative="1" as="geometry">
            <mxPoint x="-55" y="2593" as="sourcePoint" />
            <mxPoint x="-5" y="2543" as="targetPoint" />
          </mxGeometry>
        </mxCell>
        <mxCell id="uznuza7RhrSrtAUMvU-b-147" value="" style="endArrow=classic;startArrow=classic;html=1;rounded=0;" parent="1" source="uznuza7RhrSrtAUMvU-b-110" target="uznuza7RhrSrtAUMvU-b-55" edge="1">
          <mxGeometry width="50" height="50" relative="1" as="geometry">
            <mxPoint x="109" y="2593" as="sourcePoint" />
            <mxPoint x="159" y="2543" as="targetPoint" />
          </mxGeometry>
        </mxCell>
        <mxCell id="uznuza7RhrSrtAUMvU-b-148" value="" style="endArrow=classic;startArrow=classic;html=1;rounded=0;" parent="1" source="uznuza7RhrSrtAUMvU-b-112" target="uznuza7RhrSrtAUMvU-b-33" edge="1">
          <mxGeometry width="50" height="50" relative="1" as="geometry">
            <mxPoint x="421" y="2530" as="sourcePoint" />
            <mxPoint x="471" y="2480" as="targetPoint" />
          </mxGeometry>
        </mxCell>
        <mxCell id="uznuza7RhrSrtAUMvU-b-149" value="" style="endArrow=classic;startArrow=classic;html=1;rounded=0;" parent="1" source="uznuza7RhrSrtAUMvU-b-96" target="uznuza7RhrSrtAUMvU-b-68" edge="1">
          <mxGeometry width="50" height="50" relative="1" as="geometry">
            <mxPoint x="545" y="2626" as="sourcePoint" />
            <mxPoint x="595" y="2576" as="targetPoint" />
          </mxGeometry>
        </mxCell>
        <mxCell id="uznuza7RhrSrtAUMvU-b-150" value="" style="endArrow=classic;startArrow=classic;html=1;rounded=0;" parent="1" source="uznuza7RhrSrtAUMvU-b-108" target="uznuza7RhrSrtAUMvU-b-37" edge="1">
          <mxGeometry width="50" height="50" relative="1" as="geometry">
            <mxPoint x="545" y="2626" as="sourcePoint" />
            <mxPoint x="595" y="2576" as="targetPoint" />
          </mxGeometry>
        </mxCell>
        <mxCell id="uznuza7RhrSrtAUMvU-b-151" value="" style="endArrow=classic;startArrow=classic;html=1;rounded=0;" parent="1" source="uznuza7RhrSrtAUMvU-b-106" target="uznuza7RhrSrtAUMvU-b-12" edge="1">
          <mxGeometry width="50" height="50" relative="1" as="geometry">
            <mxPoint x="-379" y="2389" as="sourcePoint" />
            <mxPoint x="-329" y="2339" as="targetPoint" />
          </mxGeometry>
        </mxCell>
        <mxCell id="uznuza7RhrSrtAUMvU-b-106" value="&lt;font style=&quot;font-size: 24px;&quot;&gt;Mechanism of Action&lt;/font&gt;" style="rounded=0;whiteSpace=wrap;html=1;fillColor=#eeeeee;strokeColor=#36393d;" parent="1" vertex="1">
          <mxGeometry x="-560" y="2610" width="120" height="60" as="geometry" />
        </mxCell>
        <mxCell id="uznuza7RhrSrtAUMvU-b-152" value="" style="endArrow=classic;startArrow=classic;html=1;rounded=0;" parent="1" source="uznuza7RhrSrtAUMvU-b-114" target="uznuza7RhrSrtAUMvU-b-51" edge="1">
          <mxGeometry width="50" height="50" relative="1" as="geometry">
            <mxPoint x="-306" y="2071" as="sourcePoint" />
            <mxPoint x="-377" y="1665" as="targetPoint" />
          </mxGeometry>
        </mxCell>
        <mxCell id="uznuza7RhrSrtAUMvU-b-153" value="" style="endArrow=classic;startArrow=classic;html=1;rounded=0;" parent="1" source="uznuza7RhrSrtAUMvU-b-102" target="uznuza7RhrSrtAUMvU-b-9" edge="1">
          <mxGeometry width="50" height="50" relative="1" as="geometry">
            <mxPoint x="-413" y="2365" as="sourcePoint" />
            <mxPoint x="-363" y="2315" as="targetPoint" />
          </mxGeometry>
        </mxCell>
        <mxCell id="uznuza7RhrSrtAUMvU-b-122" value="&lt;font style=&quot;font-size: 24px;&quot;&gt;Molecular Weight&lt;/font&gt;" style="rounded=0;whiteSpace=wrap;html=1;fillColor=#dae8fc;strokeColor=#6c8ebf;" parent="1" vertex="1">
          <mxGeometry x="-272" y="2755" width="120" height="60" as="geometry" />
        </mxCell>
        <mxCell id="uznuza7RhrSrtAUMvU-b-154" value="" style="endArrow=classic;startArrow=classic;html=1;rounded=0;" parent="1" source="uznuza7RhrSrtAUMvU-b-104" target="uznuza7RhrSrtAUMvU-b-35" edge="1">
          <mxGeometry width="50" height="50" relative="1" as="geometry">
            <mxPoint x="865" y="2383" as="sourcePoint" />
            <mxPoint x="915" y="2333" as="targetPoint" />
          </mxGeometry>
        </mxCell>
        <mxCell id="uznuza7RhrSrtAUMvU-b-157" value="" style="endArrow=classic;startArrow=classic;html=1;rounded=0;exitX=0.25;exitY=0;exitDx=0;exitDy=0;" parent="1" source="uznuza7RhrSrtAUMvU-b-98" target="uznuza7RhrSrtAUMvU-b-16" edge="1">
          <mxGeometry width="50" height="50" relative="1" as="geometry">
            <mxPoint x="-353" y="2816" as="sourcePoint" />
            <mxPoint x="-303" y="2766" as="targetPoint" />
          </mxGeometry>
        </mxCell>
        <mxCell id="uznuza7RhrSrtAUMvU-b-158" value="&lt;div style=&quot;text-align: left;&quot;&gt;&lt;span style=&quot;font-size: 24px; background-color: initial;&quot;&gt;&amp;nbsp;Data Attributes from Tata-1mg, PubChem, DrugBank and FDA adverse&amp;nbsp; &amp;nbsp;effects corresponding to a drug.&amp;nbsp;&lt;/span&gt;&lt;/div&gt;&lt;div style=&quot;text-align: left;&quot;&gt;&lt;span style=&quot;font-size: 24px; background-color: initial;&quot;&gt;&lt;br&gt;&lt;/span&gt;&lt;/div&gt;&lt;div style=&quot;text-align: left;&quot;&gt;&lt;span style=&quot;font-size: 24px; background-color: initial;&quot;&gt;&amp;nbsp;Similar Attributes between different databases are linked.&amp;nbsp;&lt;/span&gt;&lt;span style=&quot;background-color: initial; font-size: 24px;&quot;&gt;They are also&amp;nbsp; &amp;nbsp;colour coded so that associated attributes have the same colour.&lt;/span&gt;&lt;/div&gt;&lt;div style=&quot;text-align: left;&quot;&gt;&lt;span style=&quot;background-color: initial; font-size: 24px;&quot;&gt;&lt;br&gt;&lt;/span&gt;&lt;/div&gt;&lt;div style=&quot;text-align: left;&quot;&gt;&lt;span style=&quot;background-color: initial; font-size: 24px;&quot;&gt;&amp;nbsp;&lt;b&gt;Brand Drug&lt;/b&gt; from Tata-1mg connects to DrugBank, PubChem and FDA&amp;nbsp; &amp;nbsp;adverse effects using &lt;b&gt;Salt Composition&lt;/b&gt;.&lt;/span&gt;&lt;/div&gt;" style="text;html=1;align=center;verticalAlign=middle;whiteSpace=wrap;rounded=0;strokeColor=default;strokeWidth=2;" parent="1" vertex="1">
          <mxGeometry x="-223.5" y="1537" width="825" height="244" as="geometry" />
        </mxCell>
        <mxCell id="02Z25DJzvLecpGDdfGVR-1" value="&lt;font style=&quot;font-size: 48px;&quot;&gt;Dolo 650 Tablet (Paracetamol)&lt;/font&gt;" style="text;html=1;align=center;verticalAlign=middle;whiteSpace=wrap;rounded=0;" parent="1" vertex="1">
          <mxGeometry x="-226" y="1382" width="395" height="138" as="geometry" />
        </mxCell>
      </root>
    </mxGraphModel>
  </diagram>
</mxfile>
